<svg width="130" height="60" viewBox="0 0 130 60" fill="none" xmlns="http://www.w3.org/2000/svg">
<path d="M28.416 11.504C28.768 11.92 28.944 12.352 28.944 12.8C28.944 12.992 28.928 13.2 28.896 13.424C28.896 13.616 28.88 13.792 28.848 13.952C28.752 14.304 28.544 14.64 28.224 14.96C27.968 15.152 27.616 15.296 27.168 15.392C26.944 15.456 26.72 15.504 26.496 15.536C26.272 15.568 26.032 15.616 25.776 15.68C25.552 15.712 25.328 15.728 25.104 15.728C24.88 15.728 24.64 15.728 24.384 15.728H21.936C21.36 15.76 20.784 15.776 20.208 15.776C19.664 15.776 19.12 15.776 18.576 15.776C18.608 16.768 18.624 17.84 18.624 18.992C18.624 20.112 18.608 21.424 18.576 22.928C18.576 24.432 18.56 26.176 18.528 28.16C18.528 30.144 18.528 32.448 18.528 35.072V38.72C18.528 39.04 18.544 39.28 18.576 39.44C18.576 39.568 18.576 39.696 18.576 39.824C18.576 39.92 18.56 40.048 18.528 40.208C18.464 40.496 18.416 40.832 18.384 41.216C18.384 41.376 18.368 41.536 18.336 41.696C18.304 41.824 18.256 41.968 18.192 42.128C18.064 42.256 18 42.352 18 42.416L17.856 42.704C17.696 43.024 17.392 43.328 16.944 43.616C16.24 43.968 15.456 44.048 14.592 43.856C14.048 43.792 13.632 43.648 13.344 43.424C13.056 43.136 12.848 42.848 12.72 42.56C12.528 42.208 12.416 41.872 12.384 41.552C12.288 41.264 12.24 40.96 12.24 40.64V15.968C12.048 15.968 11.648 15.968 11.04 15.968C10.432 15.968 9.776 15.968 9.072 15.968C8.4 15.936 7.76 15.904 7.152 15.872C6.544 15.84 6.128 15.808 5.904 15.776C5.712 15.744 5.408 15.696 4.992 15.632C4.608 15.568 4.288 15.504 4.032 15.44C3.36 15.248 2.832 14.944 2.448 14.528C2.096 14.112 1.92 13.648 1.92 13.136C1.92 12.944 1.92 12.752 1.92 12.56C1.92 12.368 1.952 12.192 2.016 12.032C2.112 11.648 2.368 11.328 2.784 11.072C2.912 10.976 3.104 10.864 3.36 10.736C3.648 10.576 3.92 10.464 4.176 10.4C4.56 10.272 5.04 10.176 5.616 10.112C5.872 10.08 6.128 10.064 6.384 10.064C6.64 10.064 6.912 10.064 7.2 10.064C8.32 10.064 9.376 10.064 10.368 10.064C11.392 10.064 12.464 10.048 13.584 10.016C15.44 9.984 17.28 9.984 19.104 10.016C20.96 10.016 22.8 10.048 24.624 10.112C25.04 10.144 25.44 10.192 25.824 10.256C26.208 10.32 26.592 10.432 26.976 10.592C27.264 10.688 27.536 10.816 27.792 10.976C28.048 11.104 28.256 11.28 28.416 11.504ZM51.4838 34.544C51.5158 35.184 51.5318 35.856 51.5318 36.56C51.5318 37.232 51.5158 37.856 51.4838 38.432C51.4518 39.296 51.4038 40.096 51.3398 40.832C51.2758 41.536 51.1478 42.144 50.9558 42.656C50.7638 43.136 50.4598 43.504 50.0438 43.76C49.6598 43.984 49.1158 44.048 48.4118 43.952C47.6758 43.856 47.1478 43.504 46.8278 42.896C46.5078 42.288 46.2838 41.6 46.1558 40.832C46.0598 40.032 46.0278 39.232 46.0598 38.432C46.0918 37.632 46.0918 37.008 46.0598 36.56C46.0278 35.856 45.9958 35.056 45.9638 34.16C45.9638 33.232 45.8678 32.368 45.6758 31.568C45.5158 30.736 45.2278 30.032 44.8118 29.456C44.3958 28.88 43.7718 28.576 42.9398 28.544C41.8838 28.48 41.0678 28.56 40.4918 28.784C39.9478 29.008 39.5478 29.344 39.2918 29.792C39.0358 30.208 38.8758 30.72 38.8118 31.328C38.7798 31.936 38.7158 32.592 38.6198 33.296L38.5718 35.168V38.672C38.5718 39.248 38.5558 39.856 38.5238 40.496C38.5238 41.104 38.4278 41.664 38.2358 42.176C38.0438 42.688 37.7398 43.12 37.3238 43.472C36.9398 43.824 36.3638 44 35.5958 44C34.6358 44 33.9158 43.696 33.4358 43.088C32.9878 42.448 32.7638 41.664 32.7638 40.736V13.136C32.7638 12.944 32.7638 12.768 32.7638 12.608C32.7958 12.416 32.8278 12.224 32.8598 12.032C32.9238 11.84 32.9718 11.664 33.0038 11.504C33.0358 11.312 33.0838 11.136 33.1478 10.976C33.2438 10.656 33.4038 10.416 33.6278 10.256C33.7878 10.096 33.9478 9.968 34.1078 9.872C34.2678 9.776 34.4438 9.712 34.6358 9.68C34.7958 9.648 34.9718 9.632 35.1638 9.632C35.3558 9.6 35.5478 9.584 35.7398 9.584C36.2198 9.584 36.6838 9.728 37.1318 10.016C37.3238 10.144 37.4998 10.288 37.6598 10.448C37.8198 10.576 37.9478 10.768 38.0438 11.024C38.2998 11.632 38.4278 12.208 38.4278 12.752C38.4598 12.912 38.4758 13.152 38.4758 13.472C38.5078 13.76 38.5238 14.064 38.5238 14.384C38.5238 14.704 38.5238 15.024 38.5238 15.344C38.5558 15.632 38.5718 15.856 38.5718 16.016V16.256C38.6038 17.28 38.6198 18.32 38.6198 19.376C38.6198 20.432 38.6198 21.504 38.6198 22.592V23.408C39.9638 22.96 41.3718 22.752 42.8438 22.784C44.3158 22.784 45.6278 23.072 46.7798 23.648C47.9638 24.256 48.8598 24.944 49.4678 25.712C50.1078 26.48 50.5718 27.328 50.8598 28.256C51.1478 29.184 51.3078 30.176 51.3398 31.232C51.4038 32.288 51.4518 33.392 51.4838 34.544ZM60.9735 23.792C61.9335 23.312 62.9415 22.976 63.9975 22.784C65.0535 22.56 66.0935 22.512 67.1175 22.64C68.1735 22.736 69.1815 23.008 70.1415 23.456C71.1015 23.872 71.9975 24.48 72.8295 25.28C73.6615 26.112 74.3015 27.024 74.7495 28.016C75.1975 29.008 75.5175 30.112 75.7095 31.328C75.8375 32.16 76.0455 32.928 76.3335 33.632C76.6215 34.336 76.9255 35.04 77.2455 35.744C77.5975 36.448 77.9175 37.152 78.2055 37.856C78.5255 38.56 78.7815 39.296 78.9735 40.064C79.1335 40.8 79.0695 41.52 78.7815 42.224C78.5255 42.896 77.9815 43.312 77.1495 43.472C76.6695 43.568 76.2055 43.536 75.7575 43.376C75.3415 43.184 74.9575 42.928 74.6055 42.608C74.2535 42.256 73.9335 41.888 73.6455 41.504C73.3895 41.088 73.1495 40.704 72.9255 40.352C72.1895 41.312 71.3895 42.064 70.5255 42.608C69.6615 43.12 68.6215 43.456 67.4055 43.616C66.3815 43.744 65.4055 43.776 64.4775 43.712C63.5495 43.648 62.5575 43.472 61.5015 43.184C60.1255 42.832 58.9895 42.224 58.0935 41.36C57.2295 40.464 56.5575 39.44 56.0775 38.288C55.6295 37.104 55.3895 35.84 55.3575 34.496C55.3255 33.152 55.4855 31.824 55.8375 30.512C56.2855 28.784 56.9575 27.376 57.8535 26.288C58.7495 25.2 59.7895 24.368 60.9735 23.792ZM62.1735 29.408C61.7255 29.856 61.3735 30.384 61.1175 30.992C60.8615 31.6 60.7015 32.24 60.6375 32.912C60.6055 33.584 60.6695 34.256 60.8295 34.928C60.9895 35.6 61.2455 36.192 61.5975 36.704C61.9175 37.152 62.4615 37.536 63.2295 37.856C63.9975 38.144 64.7975 38.32 65.6295 38.384C66.5895 38.448 67.4215 38.192 68.1255 37.616C68.8615 37.04 69.4055 36.32 69.7575 35.456C70.1415 34.56 70.3175 33.616 70.2855 32.624C70.2535 31.6 69.9815 30.672 69.4695 29.84C69.0855 29.232 68.5735 28.784 67.9335 28.496C67.3255 28.208 66.6695 28.064 65.9655 28.064C65.2615 28.032 64.5575 28.144 63.8535 28.4C63.1815 28.624 62.6215 28.96 62.1735 29.408ZM89.3509 40.16C89.3189 40.32 89.2869 40.48 89.2549 40.64C89.2549 40.768 89.2549 40.912 89.2549 41.072L88.9669 42.08C88.9029 42.208 88.8549 42.288 88.8229 42.32L88.6789 42.608C88.5189 42.96 88.2309 43.248 87.8149 43.472C87.0469 43.856 86.2309 43.952 85.3669 43.76C84.8229 43.696 84.3909 43.536 84.0709 43.28C83.7509 43.056 83.5269 42.784 83.3989 42.464C83.2709 42.144 83.1749 41.824 83.1109 41.504C83.0149 41.184 82.9669 40.896 82.9669 40.64V13.76C82.9669 13.536 82.9669 13.344 82.9669 13.184C82.9989 12.992 83.0309 12.816 83.0629 12.656C83.0949 12.432 83.1269 12.24 83.1589 12.08C83.2229 11.92 83.2869 11.744 83.3509 11.552C83.4469 11.232 83.6229 10.976 83.8789 10.784C84.2629 10.496 84.6309 10.336 84.9829 10.304C85.2069 10.24 85.4149 10.208 85.6069 10.208C85.7989 10.176 86.0229 10.16 86.2789 10.16C86.7269 10.16 87.2389 10.288 87.8149 10.544C88.2629 10.8 88.5829 11.152 88.7749 11.6C89.0949 12.24 89.2549 12.832 89.2549 13.376C89.2869 13.696 89.3029 14.176 89.3029 14.816C89.3349 15.456 89.3509 15.936 89.3509 16.256V16.448C89.4149 17.472 89.4469 18.464 89.4469 19.424C89.4469 20.352 89.4309 21.376 89.3989 22.496C89.3989 23.584 89.3829 24.64 89.3509 25.664C89.3509 26.656 89.3509 27.648 89.3509 28.64V38.72C89.3509 38.848 89.3509 38.976 89.3509 39.104C89.3829 39.2 89.3989 39.312 89.3989 39.44C89.3989 39.76 89.3829 40 89.3509 40.16ZM99.3274 25.808C99.3274 26.704 99.3274 27.712 99.3274 28.832C99.3594 29.952 99.3754 31.12 99.3754 32.336C99.3754 33.52 99.3754 34.704 99.3754 35.888C99.3754 37.04 99.3594 38.112 99.3274 39.104C99.2954 39.584 99.2474 40.112 99.1834 40.688C99.1194 41.232 98.9914 41.744 98.7994 42.224C98.6074 42.704 98.3034 43.104 97.8874 43.424C97.5034 43.712 96.9754 43.84 96.3034 43.808C95.3114 43.744 94.5914 43.312 94.1434 42.512C93.7274 41.712 93.4874 40.592 93.4234 39.152C93.4234 38.416 93.4074 37.568 93.3754 36.608C93.3754 35.648 93.3594 34.672 93.3274 33.68C93.3274 32.688 93.3274 31.728 93.3274 30.8C93.3274 29.84 93.3274 28.976 93.3274 28.208C93.3274 27.76 93.3114 27.216 93.2794 26.576C93.2794 25.936 93.2954 25.28 93.3274 24.608C93.3594 23.936 93.4394 23.296 93.5674 22.688C93.6954 22.048 93.9034 21.52 94.1914 21.104C94.4154 20.848 94.7354 20.656 95.1514 20.528C95.5674 20.368 95.9994 20.288 96.4474 20.288C96.9274 20.288 97.3754 20.368 97.7914 20.528C98.2394 20.688 98.5594 20.912 98.7514 21.2C98.8794 21.392 98.9754 21.664 99.0394 22.016C99.1034 22.368 99.1514 22.768 99.1834 23.216C99.2474 23.632 99.2794 24.08 99.2794 24.56C99.3114 25.008 99.3274 25.424 99.3274 25.808ZM97.5034 16.112C96.5114 16.368 95.6794 16.272 95.0074 15.824C94.3674 15.344 93.9674 14.64 93.8074 13.712C93.6794 13.04 93.7274 12.448 93.9514 11.936C94.1754 11.424 94.5114 11.04 94.9594 10.784C95.4074 10.496 95.9194 10.368 96.4954 10.4C97.0714 10.432 97.6474 10.656 98.2234 11.072C98.7674 11.456 99.1514 11.904 99.3754 12.416C99.6314 12.928 99.7114 13.424 99.6154 13.904C99.5514 14.384 99.3434 14.832 98.9914 15.248C98.6394 15.632 98.1434 15.92 97.5034 16.112ZM109.161 23.792C110.121 23.312 111.129 22.976 112.185 22.784C113.241 22.56 114.281 22.512 115.305 22.64C116.361 22.736 117.369 23.008 118.329 23.456C119.289 23.872 120.185 24.48 121.017 25.28C121.849 26.112 122.489 27.024 122.937 28.016C123.385 29.008 123.705 30.112 123.897 31.328C124.025 32.16 124.233 32.928 124.521 33.632C124.809 34.336 125.113 35.04 125.433 35.744C125.785 36.448 126.105 37.152 126.393 37.856C126.713 38.56 126.969 39.296 127.161 40.064C127.321 40.8 127.257 41.52 126.969 42.224C126.713 42.896 126.169 43.312 125.337 43.472C124.857 43.568 124.393 43.536 123.945 43.376C123.529 43.184 123.145 42.928 122.793 42.608C122.441 42.256 122.121 41.888 121.833 41.504C121.577 41.088 121.337 40.704 121.113 40.352C120.377 41.312 119.577 42.064 118.713 42.608C117.849 43.12 116.809 43.456 115.593 43.616C114.569 43.744 113.593 43.776 112.665 43.712C111.737 43.648 110.745 43.472 109.689 43.184C108.313 42.832 107.177 42.224 106.281 41.36C105.417 40.464 104.745 39.44 104.265 38.288C103.817 37.104 103.577 35.84 103.545 34.496C103.513 33.152 103.673 31.824 104.025 30.512C104.473 28.784 105.145 27.376 106.041 26.288C106.937 25.2 107.977 24.368 109.161 23.792ZM110.361 29.408C109.913 29.856 109.561 30.384 109.305 30.992C109.049 31.6 108.889 32.24 108.825 32.912C108.793 33.584 108.857 34.256 109.017 34.928C109.177 35.6 109.433 36.192 109.785 36.704C110.105 37.152 110.649 37.536 111.417 37.856C112.185 38.144 112.985 38.32 113.817 38.384C114.777 38.448 115.609 38.192 116.313 37.616C117.049 37.04 117.593 36.32 117.945 35.456C118.329 34.56 118.505 33.616 118.473 32.624C118.441 31.6 118.169 30.672 117.657 29.84C117.273 29.232 116.761 28.784 116.121 28.496C115.513 28.208 114.857 28.064 114.153 28.064C113.449 28.032 112.745 28.144 112.041 28.4C111.369 28.624 110.809 28.96 110.361 29.408Z" fill="#E19EB7"/>
<mask id="path-2-inside-1_455_1012" fill="white">
<path d="M92.9058 16.6312C92.9219 8.28193 101.301 7.02757 106.886 7.03838C108.269 14.0727 99.6851 17.7333 92.9058 16.6312Z"/>
</mask>
<path d="M103.194 8.17127C103.84 -0.364722 97.4445 -7.80831 88.9085 -8.45445C80.3725 -9.10059 72.9289 -2.7046 72.2828 5.83139L103.194 8.17127ZM98.2294 48.477C106.79 48.4936 113.743 41.5675 113.759 33.0071C113.776 24.4467 106.85 17.4937 98.2894 17.4771L98.2294 48.477ZM72.2828 5.83139C71.7685 12.6256 71.4566 18.2523 71.5347 22.735C71.6042 26.7234 71.9538 32.1823 74.4197 37.0856C75.846 39.9217 77.9698 42.5822 80.9326 44.6299C83.7787 46.597 86.6552 47.483 88.8701 47.9196C92.4218 48.6198 96.7376 48.4742 98.2294 48.477L98.2894 17.4771C96.6433 17.4739 95.8977 17.4884 95.0544 17.4685C94.2812 17.4502 94.3844 17.41 94.8659 17.505C95.439 17.618 96.9063 17.9865 98.5581 19.1281C100.327 20.3504 101.471 21.8774 102.115 23.1578C102.668 24.2577 102.732 24.9319 102.683 24.6285C102.639 24.356 102.555 23.6252 102.53 22.1947C102.479 19.2751 102.685 14.8973 103.194 8.17127L72.2828 5.83139ZM92.9058 16.6312L61.9058 16.5712L61.8547 42.99L87.9312 47.2294L92.9058 16.6312ZM106.886 7.03838L137.304 1.05985L132.396 -23.9123L106.946 -23.9616L106.886 7.03838ZM123.906 16.6912C123.899 20.0478 122.957 24.5971 119.975 28.9974C117.13 33.1974 113.64 35.4745 111.338 36.5911C107.654 38.3784 105.367 38.0355 106.826 38.0383L106.946 -23.9616C102.821 -23.9695 93.5514 -23.6906 84.2772 -19.1915C79.1805 -16.7191 73.244 -12.5636 68.648 -5.78055C63.9162 1.20291 61.9204 9.03994 61.9058 16.5712L123.906 16.6912ZM76.4681 13.0169C75.4487 7.83043 76.1992 2.00178 79.0136 -3.16626C81.5853 -7.88857 85.0206 -10.531 87.2563 -11.8441C91.2204 -14.1725 94.7995 -14.4679 97.8803 -13.9671L87.9312 47.2294C97.7913 48.8325 109.052 47.2578 118.657 41.6161C129.345 35.3384 141.236 21.0656 137.304 1.05985L76.4681 13.0169Z" fill="#F63C81" mask="url(#path-2-inside-1_455_1012)"/>
</svg>
