<?xml version="1.0" encoding="iso-8859-1"?>
<!-- Uploaded to: SVG Repo, www.svgrepo.com, Generator: SVG Repo Mixer Tools -->
<!DOCTYPE svg PUBLIC "-//W3C//DTD SVG 1.1//EN" "http://www.w3.org/Graphics/SVG/1.1/DTD/svg11.dtd">
<svg fill="#571240" version="1.1" id="Capa_1" xmlns="http://www.w3.org/2000/svg" xmlns:xlink="http://www.w3.org/1999/xlink" 
	 width="800px" height="800px" viewBox="0 0 49.071 49.071"
	 xml:space="preserve">
<g>
	<g>
		<ellipse cx="24.536" cy="32.015" rx="2.5" ry="1"/>
		<circle cx="17.744" cy="25.885" r="2.25"/>
		<circle cx="31.329" cy="25.885" r="2.25"/>
		<path d="M48.235,39.478c-0.285-0.957-0.556-1.861-0.611-2.485c-0.285-3.174-0.146-12.85-0.146-12.954
			c0-12.453-10.278-22.584-22.916-22.584c-12.637,0-22.918,10.131-22.918,22.601c0.004,0.098,0.322,9.833,0.003,13.016
			c-0.064,0.636-0.374,1.561-0.701,2.539c-0.624,1.865-1.271,3.798-0.766,5.07c0.52,1.309,3.049,2.592,4.199,2.825
			c3.139,0.642,7.482-1.629,12.448-3.159c2.388,1.039,5.012,1.606,7.738,1.606c3.237,0,6.119-0.408,8.607-1.188
			c4.512,1.484,8.471,3.312,11.425,2.722c1.183-0.237,3.695-1.479,4.256-2.795C49.403,43.408,48.808,41.411,48.235,39.478z
			 M10.153,31.753c-0.016,0.008-0.034,0.01-0.05,0.018c-0.002-0.006-0.005-0.012-0.007-0.018c-0.26,0.125-0.546,0.193-0.846,0.198
			c-1.231-0.019-2.214-1.155-2.214-2.56c0-1.403,0.983-2.543,2.214-2.56c0.009,0.001,0.018,0.001,0.026,0.003
			c0.342,0.584,0.734,1.146,1.178,1.682c-0.352-1.207-0.559-2.443-0.618-3.681c1.148-1.162,2.148-3.028,2.681-5.252
			c0.153-0.64,0.254-1.269,0.315-1.881c2.109,2.528,6.258,5.265,14.365,5.355c0.002,0,0.004,0,0.006,0
			c0.174,0,0.338-0.092,0.428-0.242c0.092-0.152,0.096-0.341,0.011-0.497c-0.332-0.61-1.125-2.4-0.81-3.344
			c0.039-0.116,0.094-0.211,0.166-0.29c0.814,0.66,3.178,2.317,6.334,2.317c1.162,0,2.304-0.229,3.418-0.678
			c0.562,1.899,1.466,3.482,2.484,4.513c-0.06,1.235-0.267,2.473-0.617,3.68c0.442-0.533,0.836-1.098,1.176-1.682
			c1.217,0.036,2.185,1.163,2.185,2.557c0,1.414-0.998,2.562-2.24,2.562c-0.291,0-0.564-0.066-0.818-0.184
			c-2.036,5.91-7.696,10.17-14.38,10.183C17.849,41.941,12.182,37.672,10.153,31.753z"/>
	</g>
</g>
</svg>