<svg width="29" height="48" viewBox="0 0 29 48" fill="none" xmlns="http://www.w3.org/2000/svg">
<mask id="path-1-inside-1_458_1010" fill="white">
<path d="M9.90576 9.63118C9.92191 1.28193 18.3014 0.0275719 23.8861 0.0383767C25.2687 7.07275 16.6851 10.7333 9.90576 9.63118Z"/>
</mask>
<path d="M20.1943 1.17127C20.8405 -7.36472 14.4445 -14.8083 5.90849 -15.4545C-2.62751 -16.1006 -10.0711 -9.7046 -10.7172 -1.16861L20.1943 1.17127ZM15.2294 41.477C23.7898 41.4936 30.7428 34.5675 30.7594 26.0071C30.7759 17.4467 23.8498 10.4937 15.2894 10.4771L15.2294 41.477ZM-10.7172 -1.16861C-11.2315 5.62562 -11.5434 11.2523 -11.4653 15.735C-11.3958 19.7234 -11.0462 25.1823 -8.58026 30.0856C-7.15402 32.9217 -5.03021 35.5822 -2.06737 37.6299C0.778709 39.597 3.6552 40.483 5.87012 40.9196C9.42183 41.6198 13.7376 41.4742 15.2294 41.477L15.2894 10.4771C13.6433 10.4739 12.8977 10.4884 12.0544 10.4685C11.2812 10.4502 11.3844 10.41 11.8659 10.505C12.439 10.618 13.9063 10.9865 15.5581 12.1281C17.3266 13.3504 18.4709 14.8774 19.1148 16.1578C19.6679 17.2577 19.7316 17.9319 19.6827 17.6285C19.6387 17.356 19.5549 16.6252 19.53 15.1947C19.4791 12.2751 19.6852 7.89729 20.1943 1.17127L-10.7172 -1.16861ZM9.90576 9.63118L-21.0942 9.5712L-21.1453 35.99L4.93122 40.2294L9.90576 9.63118ZM23.8861 0.0383767L54.3042 -5.94015L49.396 -30.9123L23.9461 -30.9616L23.8861 0.0383767ZM40.9057 9.69115C40.8992 13.0478 39.9569 17.5971 36.9753 21.9974C34.1295 26.1974 30.64 28.4745 28.3383 29.5911C24.654 31.3784 22.3667 31.0355 23.8262 31.0383L23.9461 -30.9616C19.8209 -30.9695 10.5514 -30.6906 1.27721 -26.1915C-3.81947 -23.7191 -9.756 -19.5636 -14.352 -12.7805C-19.0838 -5.79709 -21.0796 2.03994 -21.0942 9.5712L40.9057 9.69115ZM-6.53191 6.0169C-7.55128 0.830426 -6.80084 -4.99822 -3.98641 -10.1663C-1.41472 -14.8886 2.02061 -17.531 4.25625 -18.8441C8.22035 -21.1725 11.7995 -21.4679 14.8803 -20.9671L4.93122 40.2294C14.7913 41.8325 26.052 40.2578 35.6571 34.6161C46.3448 28.3384 58.2362 14.0656 54.3042 -5.94015L-6.53191 6.0169Z" fill="#F63C81" mask="url(#path-1-inside-1_458_1010)"/>
<path d="M14.8062 46.908C14.2089 47.5053 13.2915 47.804 12.0542 47.804C11.7555 47.804 11.6062 47.74 11.6062 47.612C12.5449 41.9373 11.904 45.4907 11.904 39.048C11.904 32.5627 11.648 26.44 11.136 20.68C10.4107 20.7227 9.10933 20.744 7.232 20.744C5.39733 20.744 3.328 20.552 1.024 20.168L0 18.504L2.432 13C5.12 14.4507 8.896 15.176 13.76 15.176C18.6667 15.176 23.424 14.6 28.032 13.448C28.2027 13.448 28.288 13.8107 28.288 14.536C28.288 15.2613 27.968 15.9013 27.328 16.456C23.9147 17.9067 20.6507 18.9947 17.536 19.72C16.768 37.2987 16.5982 39.9533 14.8062 46.908Z" fill="#E19EB7"/>
<path d="M14.8062 46.908C14.2089 47.5053 13.2915 47.804 12.0542 47.804C11.7555 47.804 11.6062 47.74 11.6062 47.612C12.5449 41.9373 11.904 45.4907 11.904 39.048C11.904 32.5627 11.648 26.44 11.136 20.68C10.4107 20.7227 9.10933 20.744 7.232 20.744C5.39733 20.744 3.328 20.552 1.024 20.168L0 18.504L2.432 13C5.12 14.4507 8.896 15.176 13.76 15.176C18.6667 15.176 23.424 14.6 28.032 13.448C28.2027 13.448 28.288 13.8107 28.288 14.536C28.288 15.2613 27.968 15.9013 27.328 16.456C23.9147 17.9067 20.6507 18.9947 17.536 19.72C16.768 37.2987 16.5982 39.9533 14.8062 46.908Z" fill="#E19EB7"/>
</svg>
